<svg id="visual" viewBox="0 0 900 600" width="900" height="600" xmlns="http://www.w3.org/2000/svg" xmlns:xlink="http://www.w3.org/1999/xlink" version="1.1"><g stroke-width="1" stroke-linejoin="bevel"><path d="M419.1 262L438.1 202L359.3 244Z" fill="#00101c" stroke="#00101c"></path><path d="M419.1 262L455.9 205L438.1 202Z" fill="#18313b" stroke="#18313b"></path><path d="M437.1 62L384.1 161L492.9 82Z" fill="#30545a" stroke="#30545a"></path><path d="M438.1 202L384.1 161L359.3 244Z" fill="#628c85" stroke="#628c85"></path><path d="M384.1 161L317.3 142L359.3 244Z" fill="#628c85" stroke="#628c85"></path><path d="M317.3 142L272.5 241L359.3 244Z" fill="#507977" stroke="#507977"></path><path d="M359.3 244L361.3 354L419.1 262Z" fill="#8db3a0" stroke="#8db3a0"></path><path d="M461.9 364L514.9 291L419.1 262Z" fill="#628c85" stroke="#628c85"></path><path d="M419.1 262L514.9 291L455.9 205Z" fill="#0d202b" stroke="#0d202b"></path><path d="M287.3 313L361.3 354L359.3 244Z" fill="#a5c7ad" stroke="#a5c7ad"></path><path d="M437.1 62L352.3 87L384.1 161Z" fill="#628c85" stroke="#628c85"></path><path d="M384.1 161L352.3 87L317.3 142Z" fill="#18313b" stroke="#18313b"></path><path d="M272.5 241L287.3 313L359.3 244Z" fill="#628c85" stroke="#628c85"></path><path d="M361.3 354L461.9 364L419.1 262Z" fill="#3f6669" stroke="#3f6669"></path><path d="M590.7 192L525.9 128L455.9 205Z" fill="#00101c" stroke="#00101c"></path><path d="M455.9 205L492.9 82L438.1 202Z" fill="#00101c" stroke="#00101c"></path><path d="M255.5 116L238.5 260L272.5 241Z" fill="#0d202b" stroke="#0d202b"></path><path d="M272.5 241L238.5 260L287.3 313Z" fill="#23424b" stroke="#23424b"></path><path d="M255.5 116L272.5 241L317.3 142Z" fill="#8db3a0" stroke="#8db3a0"></path><path d="M492.9 82L384.1 161L438.1 202Z" fill="#30545a" stroke="#30545a"></path><path d="M525.9 128L492.9 82L455.9 205Z" fill="#507977" stroke="#507977"></path><path d="M280.5 73L255.5 116L317.3 142Z" fill="#0d202b" stroke="#0d202b"></path><path d="M332.3 451L373.1 407L361.3 354Z" fill="#a5c7ad" stroke="#a5c7ad"></path><path d="M361.3 354L373.1 407L461.9 364Z" fill="#0d202b" stroke="#0d202b"></path><path d="M243.5 366L361.3 354L287.3 313Z" fill="#8db3a0" stroke="#8db3a0"></path><path d="M352.3 87L280.5 73L317.3 142Z" fill="#23424b" stroke="#23424b"></path><path d="M361.3 0L280.5 73L352.3 87Z" fill="#30545a" stroke="#30545a"></path><path d="M588.7 291L590.7 192L514.9 291Z" fill="#628c85" stroke="#628c85"></path><path d="M514.9 291L590.7 192L455.9 205Z" fill="#a5c7ad" stroke="#a5c7ad"></path><path d="M525.9 128L553.7 85L492.9 82Z" fill="#507977" stroke="#507977"></path><path d="M563.7 400L588.7 291L514.9 291Z" fill="#23424b" stroke="#23424b"></path><path d="M604.7 121L553.7 85L525.9 128Z" fill="#76a093" stroke="#76a093"></path><path d="M495.9 0L403.1 0L437.1 62Z" fill="#8db3a0" stroke="#8db3a0"></path><path d="M199.6 310L243.5 366L287.3 313Z" fill="#a5c7ad" stroke="#a5c7ad"></path><path d="M129.6 223L199.6 310L238.5 260Z" fill="#23424b" stroke="#23424b"></path><path d="M238.5 260L199.6 310L287.3 313Z" fill="#18313b" stroke="#18313b"></path><path d="M495.9 0L437.1 62L492.9 82Z" fill="#23424b" stroke="#23424b"></path><path d="M437.1 62L403.1 0L352.3 87Z" fill="#76a093" stroke="#76a093"></path><path d="M403.1 0L361.3 0L352.3 87Z" fill="#3f6669" stroke="#3f6669"></path><path d="M590.7 192L604.7 121L525.9 128Z" fill="#76a093" stroke="#76a093"></path><path d="M677.5 162L604.7 121L590.7 192Z" fill="#00101c" stroke="#00101c"></path><path d="M332.3 451L396.1 455L373.1 407Z" fill="#507977" stroke="#507977"></path><path d="M373.1 407L396.1 455L461.9 364Z" fill="#a5c7ad" stroke="#a5c7ad"></path><path d="M461.9 364L563.7 400L514.9 291Z" fill="#00101c" stroke="#00101c"></path><path d="M243.5 366L332.3 451L361.3 354Z" fill="#23424b" stroke="#23424b"></path><path d="M614.5 336L637.5 256L588.7 291Z" fill="#0d202b" stroke="#0d202b"></path><path d="M588.7 291L637.5 256L590.7 192Z" fill="#00101c" stroke="#00101c"></path><path d="M509.9 484L563.7 400L461.9 364Z" fill="#8db3a0" stroke="#8db3a0"></path><path d="M575.7 0L495.9 0L553.7 85Z" fill="#23424b" stroke="#23424b"></path><path d="M553.7 85L495.9 0L492.9 82Z" fill="#76a093" stroke="#76a093"></path><path d="M563.7 400L614.5 336L588.7 291Z" fill="#00101c" stroke="#00101c"></path><path d="M280.5 73L190.6 93L255.5 116Z" fill="#0d202b" stroke="#0d202b"></path><path d="M255.5 116L129.6 223L238.5 260Z" fill="#00101c" stroke="#00101c"></path><path d="M271.5 0L190.6 93L280.5 73Z" fill="#3f6669" stroke="#3f6669"></path><path d="M361.3 0L271.5 0L280.5 73Z" fill="#628c85" stroke="#628c85"></path><path d="M199.6 310L188.6 389L243.5 366Z" fill="#30545a" stroke="#30545a"></path><path d="M243.5 366L221.5 460L332.3 451Z" fill="#628c85" stroke="#628c85"></path><path d="M106.8 356L188.6 389L199.6 310Z" fill="#628c85" stroke="#628c85"></path><path d="M190.6 93L129.6 223L255.5 116Z" fill="#00101c" stroke="#00101c"></path><path d="M395.1 528L509.9 484L396.1 455Z" fill="#628c85" stroke="#628c85"></path><path d="M396.1 455L509.9 484L461.9 364Z" fill="#628c85" stroke="#628c85"></path><path d="M563.7 400L650.5 423L614.5 336Z" fill="#30545a" stroke="#30545a"></path><path d="M604.7 121L575.7 0L553.7 85Z" fill="#18313b" stroke="#18313b"></path><path d="M656.5 0L575.7 0L604.7 121Z" fill="#3f6669" stroke="#3f6669"></path><path d="M708.4 173L677.5 162L716.4 234Z" fill="#3f6669" stroke="#3f6669"></path><path d="M637.5 256L677.5 162L590.7 192Z" fill="#628c85" stroke="#628c85"></path><path d="M155.6 0L127.6 127L190.6 93Z" fill="#8db3a0" stroke="#8db3a0"></path><path d="M190.6 93L127.6 127L129.6 223Z" fill="#76a093" stroke="#76a093"></path><path d="M509.9 484L587.7 450L563.7 400Z" fill="#3f6669" stroke="#3f6669"></path><path d="M614.5 336L681.5 329L637.5 256Z" fill="#628c85" stroke="#628c85"></path><path d="M188.6 389L221.5 460L243.5 366Z" fill="#0d202b" stroke="#0d202b"></path><path d="M334.3 524L395.1 528L396.1 455Z" fill="#30545a" stroke="#30545a"></path><path d="M650.5 423L681.5 329L614.5 336Z" fill="#0d202b" stroke="#0d202b"></path><path d="M334.3 524L396.1 455L332.3 451Z" fill="#18313b" stroke="#18313b"></path><path d="M284.5 531L334.3 524L332.3 451Z" fill="#30545a" stroke="#30545a"></path><path d="M716.4 234L677.5 162L637.5 256Z" fill="#0d202b" stroke="#0d202b"></path><path d="M677.5 162L691.5 101L604.7 121Z" fill="#76a093" stroke="#76a093"></path><path d="M681.5 329L710.4 280L637.5 256Z" fill="#18313b" stroke="#18313b"></path><path d="M708.4 173L691.5 101L677.5 162Z" fill="#00101c" stroke="#00101c"></path><path d="M710.4 280L716.4 234L637.5 256Z" fill="#18313b" stroke="#18313b"></path><path d="M41.8 337L106.8 356L129.6 223Z" fill="#18313b" stroke="#18313b"></path><path d="M129.6 223L106.8 356L199.6 310Z" fill="#00101c" stroke="#00101c"></path><path d="M188.6 389L131.6 478L221.5 460Z" fill="#a5c7ad" stroke="#a5c7ad"></path><path d="M587.7 450L650.5 423L563.7 400Z" fill="#23424b" stroke="#23424b"></path><path d="M681.5 329L751.4 390L710.4 280Z" fill="#3f6669" stroke="#3f6669"></path><path d="M660.5 490L650.5 423L587.7 450Z" fill="#8db3a0" stroke="#8db3a0"></path><path d="M221.5 460L284.5 531L332.3 451Z" fill="#8db3a0" stroke="#8db3a0"></path><path d="M328.3 600L409.1 600L395.1 528Z" fill="#76a093" stroke="#76a093"></path><path d="M145.6 527L284.5 531L221.5 460Z" fill="#8db3a0" stroke="#8db3a0"></path><path d="M271.5 0L155.6 0L190.6 93Z" fill="#a5c7ad" stroke="#a5c7ad"></path><path d="M395.1 528L505.9 542L509.9 484Z" fill="#0d202b" stroke="#0d202b"></path><path d="M509.9 484L608.7 539L587.7 450Z" fill="#30545a" stroke="#30545a"></path><path d="M452.9 600L505.9 542L395.1 528Z" fill="#23424b" stroke="#23424b"></path><path d="M698.4 47L656.5 0L604.7 121Z" fill="#507977" stroke="#507977"></path><path d="M773.4 0L698.4 47L808.2 45Z" fill="#8db3a0" stroke="#8db3a0"></path><path d="M691.5 101L698.4 47L604.7 121Z" fill="#23424b" stroke="#23424b"></path><path d="M836.2 139L691.5 101L708.4 173Z" fill="#30545a" stroke="#30545a"></path><path d="M41.8 181L129.6 223L127.6 127Z" fill="#76a093" stroke="#76a093"></path><path d="M41.8 181L49.8 208L129.6 223Z" fill="#a5c7ad" stroke="#a5c7ad"></path><path d="M73.8 0L65.8 111L127.6 127Z" fill="#507977" stroke="#507977"></path><path d="M65.8 111L41.8 181L127.6 127Z" fill="#507977" stroke="#507977"></path><path d="M89.8 445L188.6 389L106.8 356Z" fill="#3f6669" stroke="#3f6669"></path><path d="M89.8 445L131.6 478L188.6 389Z" fill="#00101c" stroke="#00101c"></path><path d="M0 301L41.8 337L49.8 208Z" fill="#18313b" stroke="#18313b"></path><path d="M49.8 208L41.8 337L129.6 223Z" fill="#18313b" stroke="#18313b"></path><path d="M608.7 539L660.5 490L587.7 450Z" fill="#18313b" stroke="#18313b"></path><path d="M650.5 423L751.4 390L681.5 329Z" fill="#a5c7ad" stroke="#a5c7ad"></path><path d="M328.3 600L334.3 524L284.5 531Z" fill="#76a093" stroke="#76a093"></path><path d="M328.3 600L395.1 528L334.3 524Z" fill="#00101c" stroke="#00101c"></path><path d="M505.9 542L608.7 539L509.9 484Z" fill="#3f6669" stroke="#3f6669"></path><path d="M584.7 600L608.7 539L505.9 542Z" fill="#8db3a0" stroke="#8db3a0"></path><path d="M41.8 337L89.8 445L106.8 356Z" fill="#23424b" stroke="#23424b"></path><path d="M409.1 600L452.9 600L395.1 528Z" fill="#628c85" stroke="#628c85"></path><path d="M220.5 600L328.3 600L284.5 531Z" fill="#76a093" stroke="#76a093"></path><path d="M724.4 473L751.4 390L650.5 423Z" fill="#8db3a0" stroke="#8db3a0"></path><path d="M827.2 260L801.2 199L716.4 234Z" fill="#3f6669" stroke="#3f6669"></path><path d="M716.4 234L801.2 199L708.4 173Z" fill="#30545a" stroke="#30545a"></path><path d="M155.6 0L73.8 0L127.6 127Z" fill="#8db3a0" stroke="#8db3a0"></path><path d="M0 153L0 202L41.8 181Z" fill="#628c85" stroke="#628c85"></path><path d="M101.8 562L145.6 527L131.6 478Z" fill="#8db3a0" stroke="#8db3a0"></path><path d="M131.6 478L145.6 527L221.5 460Z" fill="#507977" stroke="#507977"></path><path d="M0 153L41.8 181L65.8 111Z" fill="#18313b" stroke="#18313b"></path><path d="M41.8 181L0 202L49.8 208Z" fill="#18313b" stroke="#18313b"></path><path d="M827.2 260L716.4 234L710.4 280Z" fill="#a5c7ad" stroke="#a5c7ad"></path><path d="M0 73L0 153L65.8 111Z" fill="#3f6669" stroke="#3f6669"></path><path d="M0 202L0 301L49.8 208Z" fill="#3f6669" stroke="#3f6669"></path><path d="M41.8 337L0 380L89.8 445Z" fill="#3f6669" stroke="#3f6669"></path><path d="M660.5 490L724.4 473L650.5 423Z" fill="#3f6669" stroke="#3f6669"></path><path d="M746.4 511L724.4 473L660.5 490Z" fill="#628c85" stroke="#628c85"></path><path d="M145.6 527L220.5 600L284.5 531Z" fill="#18313b" stroke="#18313b"></path><path d="M452.9 600L584.7 600L505.9 542Z" fill="#8db3a0" stroke="#8db3a0"></path><path d="M608.7 539L642.5 600L660.5 490Z" fill="#3f6669" stroke="#3f6669"></path><path d="M145.6 527L202.6 600L220.5 600Z" fill="#18313b" stroke="#18313b"></path><path d="M73.8 0L0 73L65.8 111Z" fill="#507977" stroke="#507977"></path><path d="M0 301L0 380L41.8 337Z" fill="#a5c7ad" stroke="#a5c7ad"></path><path d="M89.8 445L101.8 562L131.6 478Z" fill="#3f6669" stroke="#3f6669"></path><path d="M145.6 527L101.8 562L202.6 600Z" fill="#00101c" stroke="#00101c"></path><path d="M809.2 360L827.2 260L710.4 280Z" fill="#3f6669" stroke="#3f6669"></path><path d="M809.2 360L710.4 280L751.4 390Z" fill="#76a093" stroke="#76a093"></path><path d="M786.2 472L809.2 360L751.4 390Z" fill="#a5c7ad" stroke="#a5c7ad"></path><path d="M808.2 45L698.4 47L691.5 101Z" fill="#3f6669" stroke="#3f6669"></path><path d="M698.4 47L773.4 0L656.5 0Z" fill="#3f6669" stroke="#3f6669"></path><path d="M836.2 139L708.4 173L801.2 199Z" fill="#00101c" stroke="#00101c"></path><path d="M900 188L836.2 139L801.2 199Z" fill="#76a093" stroke="#76a093"></path><path d="M836.2 139L808.2 45L691.5 101Z" fill="#18313b" stroke="#18313b"></path><path d="M584.7 600L642.5 600L608.7 539Z" fill="#a5c7ad" stroke="#a5c7ad"></path><path d="M724.4 473L786.2 472L751.4 390Z" fill="#3f6669" stroke="#3f6669"></path><path d="M0 487L101.8 562L89.8 445Z" fill="#3f6669" stroke="#3f6669"></path><path d="M642.5 600L746.4 511L660.5 490Z" fill="#30545a" stroke="#30545a"></path><path d="M73.8 0L0 0L0 73Z" fill="#30545a" stroke="#30545a"></path><path d="M746.4 511L786.2 472L724.4 473Z" fill="#507977" stroke="#507977"></path><path d="M0 380L0 461L89.8 445Z" fill="#628c85" stroke="#628c85"></path><path d="M0 461L0 487L89.8 445Z" fill="#0d202b" stroke="#0d202b"></path><path d="M900 98L840.2 0L808.2 45Z" fill="#76a093" stroke="#76a093"></path><path d="M808.2 45L840.2 0L773.4 0Z" fill="#3f6669" stroke="#3f6669"></path><path d="M0 487L70.8 600L101.8 562Z" fill="#a5c7ad" stroke="#a5c7ad"></path><path d="M101.8 562L70.8 600L202.6 600Z" fill="#18313b" stroke="#18313b"></path><path d="M827.2 260L900 199L801.2 199Z" fill="#30545a" stroke="#30545a"></path><path d="M836.2 139L900 98L808.2 45Z" fill="#76a093" stroke="#76a093"></path><path d="M900 327L900 199L827.2 260Z" fill="#507977" stroke="#507977"></path><path d="M900 327L827.2 260L809.2 360Z" fill="#3f6669" stroke="#3f6669"></path><path d="M900 199L900 188L801.2 199Z" fill="#76a093" stroke="#76a093"></path><path d="M900 414L900 327L809.2 360Z" fill="#0d202b" stroke="#0d202b"></path><path d="M900 188L900 98L836.2 139Z" fill="#a5c7ad" stroke="#a5c7ad"></path><path d="M746.4 511L798.2 552L786.2 472Z" fill="#76a093" stroke="#76a093"></path><path d="M786.2 472L900 414L809.2 360Z" fill="#507977" stroke="#507977"></path><path d="M760.4 600L798.2 552L746.4 511Z" fill="#0d202b" stroke="#0d202b"></path><path d="M642.5 600L760.4 600L746.4 511Z" fill="#00101c" stroke="#00101c"></path><path d="M900 469L900 414L786.2 472Z" fill="#507977" stroke="#507977"></path><path d="M900 98L900 0L840.2 0Z" fill="#628c85" stroke="#628c85"></path><path d="M0 487L0 600L70.8 600Z" fill="#3f6669" stroke="#3f6669"></path><path d="M900 553L900 469L798.2 552Z" fill="#507977" stroke="#507977"></path><path d="M798.2 552L900 469L786.2 472Z" fill="#a5c7ad" stroke="#a5c7ad"></path><path d="M760.4 600L811.2 600L798.2 552Z" fill="#23424b" stroke="#23424b"></path><path d="M811.2 600L900 553L798.2 552Z" fill="#628c85" stroke="#628c85"></path><path d="M811.2 600L900 600L900 553Z" fill="#3f6669" stroke="#3f6669"></path></g></svg>